<svg width="180" height="180" viewBox="0 0 180 180" fill="none" xmlns="http://www.w3.org/2000/svg">
  <defs>
    <linearGradient id="logo-gradient" x1="0" y1="0" x2="180" y2="180" gradientUnits="userSpaceOnUse">
      <stop offset="0%" stop-color="#034694"/>
      <stop offset="50%" stop-color="#0891b2"/>
      <stop offset="100%" stop-color="#0ea5e9"/>
    </linearGradient>
    <linearGradient id="heart-gradient" x1="0" y1="0" x2="0" y2="1">
      <stop offset="0%" stop-color="#f59e0b"/>
      <stop offset="100%" stop-color="#f97316"/>
    </linearGradient>
  </defs>
  <circle cx="90" cy="90" r="85" fill="url(#logo-gradient)" opacity="0.1"/>
  <circle cx="90" cy="90" r="75" fill="url(#logo-gradient)" opacity="0.15"/>
  <!-- Chain links -->
  <path d="M62 78c0-8.284 6.716-15 15-15h8c8.284 0 15 6.716 15 15v24c0 8.284-6.716 15-15 15h-8c-8.284 0-15-6.716-15-15V78z" fill="white" stroke="url(#logo-gradient)" stroke-width="4"/>
  <path d="M80 78c0-8.284 6.716-15 15-15h8c8.284 0 15 6.716 15 15v24c0 8.284-6.716 15-15 15h-8c-8.284 0-15-6.716-15-15V78z" fill="white" stroke="url(#logo-gradient)" stroke-width="4"/>
  <!-- Heart inside the chain -->
  <path d="M90 105c-2.5-2.7-8-6.5-11-9-3.5-2.8-5.5-6.5-5.5-10.5 0-4.5 3.5-8 8-8 2.5 0 5 1.2 6.5 3 0 0 1 1.3 2 1.3s2-1.3 2-1.3c1.5-1.8 4-3 6.5-3 4.5 0 8 3.5 8 8 0 4-2 7.7-5.5 10.5-3 2.5-8.5 6.3-11 9z" fill="url(#heart-gradient)"/>
</svg>
